<?xml version="1.0" encoding="utf-8"?>
<svg xmlns="http://www.w3.org/2000/svg" viewBox="0 0 500 500" xmlns:bx="https://boxy-svg.com">
  <defs>
    <linearGradient gradientUnits="userSpaceOnUse" bx:pinned="true" id="color-0">
      <stop style="stop-color: #f6f1f1;"/>
    </linearGradient>
    <linearGradient gradientUnits="userSpaceOnUse" bx:pinned="true" id="color-1">
      <stop style="stop-color: #afd3e2;"/>
    </linearGradient>
    <linearGradient gradientUnits="userSpaceOnUse" bx:pinned="true" id="color-2">
      <stop style="stop-color: #19a7ce;"/>
    </linearGradient>
    <linearGradient gradientUnits="userSpaceOnUse" bx:pinned="true" id="color-3">
      <stop style="stop-color: #146c94;"/>
    </linearGradient>
    <path id="path-0" style="fill: none;" d="M 320.947 295.152 C 330.613 295.152 338.959 292.648 347.884 292.648 C 353.859 292.648 360.047 290.148 364.881 290.148 C 366.862 288.268 380.777 285.154 383.61 285.154 C 389.185 285.154 394.831 280.639 399.424 280.639 C 403.619 279.91 410.765 278.939 412.798 276.917 C 419.751 275.665 423.467 273.361 427.795 273.361 C 430.419 273.361 435.17 269.575 436.677 268.166 L 439.035 268.166 C 440.033 267.529 445.756 263.735 445.756 262.854"/>
    <bx:export>
      <bx:file format="png"/>
      <bx:file format="jpeg"/>
      <bx:file format="webp"/>
      <bx:file format="svg"/>
      <bx:file format="html"/>
    </bx:export>
  </defs>
  <ellipse style="fill: url(&quot;#color-2&quot;); stroke: rgb(0, 0, 0);" cx="250" cy="250" rx="200" ry="200"/>
  <path style="fill: none; stroke: rgb(0, 0, 0);" d="M 250 50 C 107.736 108.928 107.048 390.787 250 450"/>
  <text style="fill: rgb(51, 51, 51); font-family: Arial, sans-serif; white-space: pre; font-size: 16px; stroke-width: 1; transform-origin: 356.087px 290.36px;" transform="matrix(-0.06962, 0.997574, -0.997574, -0.06962, -211.0901, -32.600847)" x="307.855" y="288.298" dx="13.539 -0.0829998 -0.07 -0.27 0.618 -0.0549999 -0.536" dy="1.267 -0.278 -0.061 -0.425 -0.448 -0.602 -0.546">0°E</text>
  <path style="fill: none; stroke: rgb(0, 0, 0);" d="M 250 50 C 167.614 132.386 166.573 366.573 250 450"/>
  <text style="fill: rgb(51, 51, 51); font-family: Arial, sans-serif; white-space: pre; font-size: 16px; stroke-width: 1; transform-origin: 356.087px 290.36px;" transform="matrix(-0.040459, 0.999181, -0.999181, -0.040459, -165.713755, -32.601077)" x="307.855" y="288.298" dx="13.539 -0.0829998 -0.07 -0.27 0.618 -0.0549999 -0.536" dy="1.267 -0.278 -0.061 -0.425 -0.448 -0.602 -0.546">15°E</text>
  <path style="fill: none; stroke: rgb(0, 0, 0);" d="M 50 250 C 59.54 311.983 440.407 311.668 450 250"/>
  <text style="fill: rgb(51, 51, 51); font-family: Arial, sans-serif; white-space: pre; font-size: 16px; transform-box: fill-box; transform-origin: 61.9763% 85.3103%;" x="307.855" y="288.298" dx="13.539 -0.0829998 -0.07 -0.27 0.618 -0.0549999 -0.536" dy="1.267 -0.278 -0.061 -0.425 -0.448 -0.602 -0.546" transform="matrix(0.996839, -0.079452, 0.079452, 0.996839, -16.927317, -1.450851)">Equator</text>
  <path style="fill: none; stroke: rgb(0, 0, 0);" d="M 76.795 150 C 109.807 203.068 392.649 203.018 423.205 150"/>
  <text style="fill: rgb(51, 51, 51); font-family: Arial, sans-serif; white-space: pre; font-size: 16px; stroke-width: 1; transform-origin: 356.067px 289.834px;" transform="matrix(0.996839, -0.079452, 0.079452, 0.996839, -27.69466, -88.88348)" x="307.855" y="288.298" dx="13.539 -0.0829998 -0.07 -0.27 0.618 -0.0549999 -0.536" dy="1.267 -0.278 -0.061 -0.425 -0.448 -0.602 -0.546">30°N</text>
  <path style="fill: none; stroke: rgb(0, 0, 0);" d="M 108.58 108.58 C 135.534 147.872 366.472 147.836 391.421 108.58"/>
  <text style="fill: rgb(51, 51, 51); font-family: Arial, sans-serif; white-space: pre; font-size: 16px; stroke-width: 1; transform-origin: 356.067px 289.834px;" transform="matrix(0.996839, -0.079452, 0.079452, 0.996839, -35.922748, -140.460244)" x="307.855" y="288.298" dx="13.539 -0.0829998 -0.07 -0.27 0.618 -0.0549999 -0.536" dy="1.267 -0.278 -0.061 -0.425 -0.448 -0.602 -0.546">45°N</text>
  <path style="fill: none; stroke: rgb(0, 0, 0);" d="M 150 76.795 C 169.059 100.037 332.358 100.015 350 76.795"/>
  <text style="fill: rgb(51, 51, 51); font-family: Arial, sans-serif; white-space: pre; font-size: 16px; stroke-width: 1; transform-origin: 356.067px 289.834px;" transform="matrix(0.997698, -0.067817, 0.067817, 0.997698, -50.165115, -183.393735)" x="307.855" y="288.298" dx="13.539 -0.0829998 -0.07 -0.27 0.618 -0.0549999 -0.536" dy="1.267 -0.278 -0.061 -0.425 -0.448 -0.602 -0.546">60°N</text>
  <path style="fill: none; stroke: rgb(0, 0, 0);" d="M 193.121 58.275 C 203.955 67.041 296.79 67.033 306.819 58.275"/>
  <text style="fill: rgb(51, 51, 51); font-family: Arial, sans-serif; white-space: pre; font-size: 16px; stroke-width: 1; transform-origin: 356.067px 289.834px;" transform="matrix(0.999598, -0.028349, 0.028349, 0.999598, -65.359944, -211.52733)" x="307.855" y="288.298" dx="13.539 -0.0829998 -0.07 -0.27 0.618 -0.0549999 -0.536" dy="1.267 -0.278 -0.061 -0.425 -0.448 -0.602 -0.546">75°N</text>
</svg>